<?xml version="1.0" standalone="no"?>
<svg xmlns:xlink="http://www.w3.org/1999/xlink" id="wave" style="transform:rotate(180deg); transition: 0.3s" viewBox="0 0 1440 100" version="1.1" xmlns="http://www.w3.org/2000/svg"><defs><linearGradient id="sw-gradient-0" x1="0" x2="0" y1="1" y2="0"><stop stop-color="rgba(255, 249, 234, 1)" offset="0%"/><stop stop-color="rgba(255, 249, 234, 1)" offset="100%"/></linearGradient></defs><path style="transform:translate(0, 0px); opacity:1" fill="url(#sw-gradient-0)" d="M0,40L40,35C80,30,160,20,240,26.7C320,33,400,57,480,63.3C560,70,640,60,720,46.7C800,33,880,17,960,20C1040,23,1120,47,1200,58.3C1280,70,1360,70,1440,66.7C1520,63,1600,57,1680,48.3C1760,40,1840,30,1920,36.7C2000,43,2080,67,2160,71.7C2240,77,2320,63,2400,63.3C2480,63,2560,77,2640,83.3C2720,90,2800,90,2880,83.3C2960,77,3040,63,3120,53.3C3200,43,3280,37,3360,30C3440,23,3520,17,3600,11.7C3680,7,3760,3,3840,16.7C3920,30,4000,60,4080,66.7C4160,73,4240,57,4320,56.7C4400,57,4480,73,4560,81.7C4640,90,4720,90,4800,86.7C4880,83,4960,77,5040,73.3C5120,70,5200,70,5280,70C5360,70,5440,70,5520,60C5600,50,5680,30,5720,20L5760,10L5760,100L5720,100C5680,100,5600,100,5520,100C5440,100,5360,100,5280,100C5200,100,5120,100,5040,100C4960,100,4880,100,4800,100C4720,100,4640,100,4560,100C4480,100,4400,100,4320,100C4240,100,4160,100,4080,100C4000,100,3920,100,3840,100C3760,100,3680,100,3600,100C3520,100,3440,100,3360,100C3280,100,3200,100,3120,100C3040,100,2960,100,2880,100C2800,100,2720,100,2640,100C2560,100,2480,100,2400,100C2320,100,2240,100,2160,100C2080,100,2000,100,1920,100C1840,100,1760,100,1680,100C1600,100,1520,100,1440,100C1360,100,1280,100,1200,100C1120,100,1040,100,960,100C880,100,800,100,720,100C640,100,560,100,480,100C400,100,320,100,240,100C160,100,80,100,40,100L0,100Z"/></svg>